<svg class="icon" style="width: 1em;height: 1em;vertical-align: middle;fill: currentColor;overflow: hidden;" viewBox="0 0 1024 1024" version="1.1" xmlns="http://www.w3.org/2000/svg" p-id="1070"><path d="M1008.696 180.518c-65.972-79.294-160.422-101.56-248.216-33.17-4.306-27.104-15.43-53.02-33.272-76.966l-48.216 35.922c38.68 51.912 20.79 104.286 5.444 132.422C573.628 181.45 302.564 147.84 176.922 481.294 126.14 616.068 28.618 655.906 6.398 713.562c-57.774 149.908 286.114 361.554 611.584 152.42 292.108-187.706 253.516-480.092 116.69-594.084a226.224 226.224 0 0 0 14.174-29.57C844.6 326.302 945.33 302.232 1024 198.916l-15.304-18.398z" p-id="1071"></path></svg>